<svg xmlns="http://www.w3.org/2000/svg" xmlns:xlink="http://www.w3.org/1999/xlink" width="500" zoomAndPan="magnify" viewBox="0 0 375 374.999991" height="500" preserveAspectRatio="xMidYMid meet" version="1.0"><defs><g/><clipPath id="889203b0bb"><path d="M 0 172.769531 L 375 172.769531 L 375 202.019531 L 0 202.019531 Z M 0 172.769531 " clip-rule="nonzero"/></clipPath></defs><rect x="-37.5" width="450" fill="#ffffff" y="-37.499999" height="449.999989" fill-opacity="1"/><rect x="-37.5" width="450" fill="#ffffff" y="-37.499999" height="449.999989" fill-opacity="1"/><rect x="-37.5" width="450" fill="#000000" y="-37.499999" height="449.999989" fill-opacity="1"/><g fill="#fdf5f3" fill-opacity="1"><g transform="translate(15.215661, 168.565506)"><g><path d="M 71.265625 0 L 65.765625 0 L 47.921875 -42.046875 L 18.21875 -42.046875 L 18.21875 0 L 13.453125 0 L 13.453125 -88.390625 L 44.625 -88.390625 C 50.320312 -88.390625 55.195312 -87.570312 59.25 -85.9375 C 63.3125 -84.3125 66.410156 -81.878906 68.546875 -78.640625 C 70.691406 -75.398438 71.765625 -71.351562 71.765625 -66.5 C 71.765625 -61.570312 70.785156 -57.519531 68.828125 -54.34375 C 66.867188 -51.164062 64.441406 -48.6875 61.546875 -46.90625 C 58.660156 -45.132812 55.789062 -43.882812 52.9375 -43.15625 Z M 40.46875 -47.0625 C 48.976562 -47.0625 55.460938 -48.5 59.921875 -51.375 C 64.390625 -54.25 66.625 -59.003906 66.625 -65.640625 C 66.625 -71.960938 64.738281 -76.519531 60.96875 -79.3125 C 57.195312 -82.101562 51.707031 -83.5 44.5 -83.5 L 18.21875 -83.5 L 18.21875 -47.0625 Z M 40.46875 -47.0625 "/></g></g></g><g fill="#fdf5f3" fill-opacity="1"><g transform="translate(90.277202, 168.565506)"><g><path d="M 6.71875 0 L 39.125 -88.390625 L 45.84375 -88.390625 L 78.125 0 L 72.859375 0 L 62.71875 -27.875 L 22.25 -27.875 L 11.859375 0 Z M 23.96875 -33.125 L 60.875 -33.125 L 42.546875 -83.25 Z M 23.96875 -33.125 "/></g></g></g><g fill="#fdf5f3" fill-opacity="1"><g transform="translate(169.861998, 168.565506)"><g><path d="M 35.078125 -17.109375 C 35.078125 -13.359375 34.628906 -10.109375 33.734375 -7.359375 C 32.835938 -4.609375 31.3125 -2.488281 29.15625 -1 C 27 0.476562 24.003906 1.21875 20.171875 1.21875 C 16.703125 1.21875 13.703125 0.722656 11.171875 -0.265625 C 8.648438 -1.265625 7.164062 -1.953125 6.71875 -2.328125 L 7.953125 -7.578125 C 9.296875 -6.960938 10.851562 -6.175781 12.625 -5.21875 C 14.394531 -4.269531 16.828125 -3.796875 19.921875 -3.796875 C 23.796875 -3.796875 26.492188 -4.914062 28.015625 -7.15625 C 29.546875 -9.394531 30.3125 -13.285156 30.3125 -18.828125 L 30.3125 -88.390625 L 35.078125 -88.390625 Z M 35.078125 -17.109375 "/></g></g></g><g fill="#fdf5f3" fill-opacity="1"><g transform="translate(210.449039, 168.565506)"><g><path d="M 6.71875 0 L 39.125 -88.390625 L 45.84375 -88.390625 L 78.125 0 L 72.859375 0 L 62.71875 -27.875 L 22.25 -27.875 L 11.859375 0 Z M 23.96875 -33.125 L 60.875 -33.125 L 42.546875 -83.25 Z M 23.96875 -33.125 "/></g></g></g><g fill="#fdf5f3" fill-opacity="1"><g transform="translate(290.033835, 168.565506)"><g><path d="M 3.359375 -83.5 L 3.359375 -88.390625 L 66.375 -88.390625 L 66.375 -83.5 L 38.515625 -83.5 L 38.515625 0 L 33.6875 0 L 33.6875 -83.5 Z M 3.359375 -83.5 "/></g></g></g><g clip-path="url(#889203b0bb)"><path fill="#000000" d="M 0.0195312 172.769531 L 374.980469 172.769531 L 374.980469 202.019531 L 0.0195312 202.019531 L 0.0195312 172.769531 " fill-opacity="1" fill-rule="nonzero"/></g><g fill="#fdf5f3" fill-opacity="1"><g transform="translate(89.973038, 195.345866)"><g><path d="M 19.734375 -15.328125 L 15.25 0 L 13.4375 0 L 10.078125 -11.890625 L 6.671875 0 L 4.90625 0 L 0.484375 -15.328125 L 2.46875 -15.328125 L 5.859375 -3.125 L 9.3125 -15.328125 L 10.859375 -15.328125 L 14.296875 -3.125 L 17.75 -15.328125 Z M 19.734375 -15.328125 "/></g></g></g><g fill="#fdf5f3" fill-opacity="1"><g transform="translate(113.368421, 195.345866)"><g><path d="M 2.03125 0 L 2.03125 -15.328125 L 11.6875 -15.328125 L 11.6875 -13.609375 L 4 -13.609375 L 4 -8.59375 L 10.921875 -8.59375 L 10.921875 -6.875 L 3.984375 -6.875 L 3.984375 -1.765625 L 11.890625 -1.75 L 11.890625 0 Z M 2.03125 0 "/></g></g></g><g fill="#fdf5f3" fill-opacity="1"><g transform="translate(129.704505, 195.345866)"><g><path d="M 2.03125 0 L 2.03125 -15.328125 L 6.953125 -15.328125 C 8.816406 -15.328125 10.226562 -14.984375 11.1875 -14.296875 C 12.144531 -13.609375 12.625 -12.617188 12.625 -11.328125 C 12.625 -10.515625 12.410156 -9.816406 11.984375 -9.234375 C 11.566406 -8.660156 10.832031 -8.1875 9.78125 -7.8125 C 10.382812 -7.6875 10.890625 -7.503906 11.296875 -7.265625 C 11.710938 -7.023438 12.046875 -6.742188 12.296875 -6.421875 C 12.546875 -6.097656 12.726562 -5.738281 12.84375 -5.34375 C 12.957031 -4.957031 13.015625 -4.550781 13.015625 -4.125 C 13.015625 -2.738281 12.519531 -1.703125 11.53125 -1.015625 C 10.539062 -0.335938 9.066406 0 7.109375 0 Z M 3.984375 -1.625 L 7.09375 -1.625 C 8.375 -1.625 9.347656 -1.832031 10.015625 -2.25 C 10.679688 -2.675781 11.015625 -3.328125 11.015625 -4.203125 C 11.015625 -4.847656 10.847656 -5.367188 10.515625 -5.765625 C 10.191406 -6.171875 9.75 -6.460938 9.1875 -6.640625 C 8.632812 -6.828125 8.015625 -6.921875 7.328125 -6.921875 L 3.984375 -6.921875 Z M 3.984375 -8.59375 L 7.328125 -8.59375 C 7.734375 -8.59375 8.132812 -8.628906 8.53125 -8.703125 C 8.925781 -8.785156 9.285156 -8.921875 9.609375 -9.109375 C 9.941406 -9.296875 10.210938 -9.550781 10.421875 -9.875 C 10.628906 -10.195312 10.734375 -10.601562 10.734375 -11.09375 C 10.734375 -11.976562 10.390625 -12.632812 9.703125 -13.0625 C 9.023438 -13.488281 8.140625 -13.703125 7.046875 -13.703125 L 3.984375 -13.703125 Z M 3.984375 -8.59375 "/></g></g></g><g fill="#fdf5f3" fill-opacity="1"><g transform="translate(147.100539, 195.345866)"><g/></g></g><g fill="#fdf5f3" fill-opacity="1"><g transform="translate(155.168978, 195.345866)"><g><path d="M 3.5625 3.40625 L 2.03125 3.40625 L 2.03125 -17.515625 L 3.5625 -17.515625 Z M 3.5625 3.40625 "/></g></g></g><g fill="#fdf5f3" fill-opacity="1"><g transform="translate(163.926386, 195.345866)"><g/></g></g><g fill="#fdf5f3" fill-opacity="1"><g transform="translate(171.994825, 195.345866)"><g><path d="M 2.03125 -15.328125 C 2.070312 -15.328125 2.21875 -15.320312 2.46875 -15.3125 C 2.726562 -15.3125 3.035156 -15.3125 3.390625 -15.3125 C 3.753906 -15.320312 4.128906 -15.320312 4.515625 -15.3125 C 4.898438 -15.3125 5.257812 -15.3125 5.59375 -15.3125 C 7.46875 -15.28125 8.988281 -14.972656 10.15625 -14.390625 C 11.332031 -13.804688 12.191406 -12.957031 12.734375 -11.84375 C 13.285156 -10.738281 13.5625 -9.378906 13.5625 -7.765625 C 13.5625 -6.066406 13.265625 -4.640625 12.671875 -3.484375 C 12.078125 -2.335938 11.175781 -1.46875 9.96875 -0.875 C 8.769531 -0.289062 7.242188 0 5.390625 0 L 2.03125 0 Z M 4.046875 -13.640625 L 4.046875 -1.6875 L 5.390625 -1.6875 C 6.648438 -1.6875 7.734375 -1.878906 8.640625 -2.265625 C 9.554688 -2.660156 10.257812 -3.300781 10.75 -4.1875 C 11.238281 -5.070312 11.484375 -6.253906 11.484375 -7.734375 C 11.484375 -9.203125 11.242188 -10.367188 10.765625 -11.234375 C 10.296875 -12.097656 9.613281 -12.710938 8.71875 -13.078125 C 7.820312 -13.453125 6.738281 -13.640625 5.46875 -13.640625 Z M 4.046875 -13.640625 "/></g></g></g><g fill="#fdf5f3" fill-opacity="1"><g transform="translate(189.878443, 195.345866)"><g><path d="M 2.03125 0 L 2.03125 -15.328125 L 11.6875 -15.328125 L 11.6875 -13.609375 L 4 -13.609375 L 4 -8.59375 L 10.921875 -8.59375 L 10.921875 -6.875 L 3.984375 -6.875 L 3.984375 -1.765625 L 11.890625 -1.75 L 11.890625 0 Z M 2.03125 0 "/></g></g></g><g fill="#fdf5f3" fill-opacity="1"><g transform="translate(206.214528, 195.345866)"><g><path d="M 7.234375 0.21875 C 6.515625 0.21875 5.8125 0.128906 5.125 -0.046875 C 4.445312 -0.234375 3.832031 -0.503906 3.28125 -0.859375 C 2.726562 -1.222656 2.269531 -1.671875 1.90625 -2.203125 C 1.550781 -2.742188 1.328125 -3.367188 1.234375 -4.078125 L 3.28125 -4.078125 C 3.414062 -3.492188 3.671875 -3.003906 4.046875 -2.609375 C 4.421875 -2.210938 4.878906 -1.914062 5.421875 -1.71875 C 5.972656 -1.519531 6.570312 -1.421875 7.21875 -1.421875 C 7.9375 -1.421875 8.582031 -1.519531 9.15625 -1.71875 C 9.726562 -1.925781 10.175781 -2.21875 10.5 -2.59375 C 10.832031 -2.96875 11 -3.414062 11 -3.9375 C 11 -4.394531 10.894531 -4.789062 10.6875 -5.125 C 10.476562 -5.46875 10.175781 -5.75 9.78125 -5.96875 C 9.382812 -6.195312 8.898438 -6.378906 8.328125 -6.515625 L 5.328125 -7.203125 C 4.191406 -7.453125 3.300781 -7.894531 2.65625 -8.53125 C 2.019531 -9.164062 1.695312 -10.007812 1.6875 -11.0625 C 1.6875 -11.9375 1.921875 -12.707031 2.390625 -13.375 C 2.859375 -14.050781 3.503906 -14.578125 4.328125 -14.953125 C 5.148438 -15.328125 6.09375 -15.515625 7.15625 -15.515625 C 8.375 -15.515625 9.398438 -15.304688 10.234375 -14.890625 C 11.066406 -14.472656 11.695312 -13.925781 12.125 -13.25 C 12.550781 -12.570312 12.769531 -11.847656 12.78125 -11.078125 L 10.75 -11.078125 C 10.6875 -11.773438 10.484375 -12.328125 10.140625 -12.734375 C 9.796875 -13.140625 9.363281 -13.425781 8.84375 -13.59375 C 8.332031 -13.769531 7.773438 -13.859375 7.171875 -13.859375 C 6.734375 -13.859375 6.3125 -13.800781 5.90625 -13.6875 C 5.5 -13.582031 5.132812 -13.421875 4.8125 -13.203125 C 4.488281 -12.984375 4.226562 -12.707031 4.03125 -12.375 C 3.84375 -12.050781 3.75 -11.675781 3.75 -11.25 C 3.75 -10.695312 3.9375 -10.242188 4.3125 -9.890625 C 4.695312 -9.546875 5.382812 -9.253906 6.375 -9.015625 L 9.296875 -8.3125 C 10.054688 -8.144531 10.675781 -7.898438 11.15625 -7.578125 C 11.644531 -7.265625 12.019531 -6.90625 12.28125 -6.5 C 12.550781 -6.101562 12.738281 -5.6875 12.84375 -5.25 C 12.945312 -4.8125 13 -4.378906 13 -3.953125 C 13 -3.179688 12.769531 -2.476562 12.3125 -1.84375 C 11.851562 -1.21875 11.191406 -0.71875 10.328125 -0.34375 C 9.472656 0.03125 8.441406 0.21875 7.234375 0.21875 Z M 7.234375 0.21875 "/></g></g></g><g fill="#fdf5f3" fill-opacity="1"><g transform="translate(223.674171, 195.345866)"><g><path d="M 2.03125 -15.328125 L 3.984375 -15.328125 L 3.984375 0 L 2.03125 0 Z M 2.03125 -15.328125 "/></g></g></g><g fill="#fdf5f3" fill-opacity="1"><g transform="translate(232.855559, 195.345866)"><g><path d="M 7.65625 0.21875 C 6.3125 0.21875 5.148438 -0.0859375 4.171875 -0.703125 C 3.203125 -1.328125 2.453125 -2.222656 1.921875 -3.390625 C 1.398438 -4.554688 1.140625 -5.96875 1.140625 -7.625 C 1.140625 -9.289062 1.40625 -10.710938 1.9375 -11.890625 C 2.476562 -13.078125 3.242188 -13.984375 4.234375 -14.609375 C 5.222656 -15.234375 6.390625 -15.546875 7.734375 -15.546875 C 8.503906 -15.546875 9.226562 -15.410156 9.90625 -15.140625 C 10.59375 -14.867188 11.195312 -14.5 11.71875 -14.03125 C 12.238281 -13.570312 12.65625 -13.046875 12.96875 -12.453125 C 13.28125 -11.859375 13.457031 -11.238281 13.5 -10.59375 L 11.40625 -10.59375 C 11.3125 -11.164062 11.09375 -11.691406 10.75 -12.171875 C 10.40625 -12.660156 9.972656 -13.050781 9.453125 -13.34375 C 8.941406 -13.644531 8.359375 -13.796875 7.703125 -13.796875 C 6.816406 -13.796875 6.039062 -13.578125 5.375 -13.140625 C 4.707031 -12.710938 4.1875 -12.046875 3.8125 -11.140625 C 3.445312 -10.234375 3.265625 -9.078125 3.265625 -7.671875 C 3.265625 -6.578125 3.375 -5.640625 3.59375 -4.859375 C 3.820312 -4.085938 4.140625 -3.457031 4.546875 -2.96875 C 4.953125 -2.488281 5.429688 -2.132812 5.984375 -1.90625 C 6.535156 -1.675781 7.128906 -1.5625 7.765625 -1.5625 C 8.398438 -1.5625 8.957031 -1.671875 9.4375 -1.890625 C 9.914062 -2.117188 10.3125 -2.410156 10.625 -2.765625 C 10.945312 -3.128906 11.191406 -3.515625 11.359375 -3.921875 C 11.535156 -4.335938 11.632812 -4.738281 11.65625 -5.125 L 11.71875 -6.484375 L 7.984375 -6.484375 L 7.984375 -7.921875 L 13.75 -7.90625 L 13.75 0 L 12.28125 0 L 12.28125 -2.328125 C 12.007812 -1.890625 11.664062 -1.476562 11.25 -1.09375 C 10.84375 -0.707031 10.34375 -0.390625 9.75 -0.140625 C 9.164062 0.0976562 8.46875 0.21875 7.65625 0.21875 Z M 7.65625 0.21875 "/></g></g></g><g fill="#fdf5f3" fill-opacity="1"><g transform="translate(251.576547, 195.345866)"><g><path d="M 12 -15.328125 L 13.96875 -15.328125 L 13.96875 0 L 12.21875 0 L 3.984375 -12.078125 L 3.984375 0 L 2.03125 0 L 2.03125 -15.328125 L 3.90625 -15.328125 L 12 -3.40625 Z M 12 -15.328125 "/></g></g></g><g fill="#fdf5f3" fill-opacity="1"><g transform="translate(270.742711, 195.345866)"><g><path d="M 7.234375 0.21875 C 6.515625 0.21875 5.8125 0.128906 5.125 -0.046875 C 4.445312 -0.234375 3.832031 -0.503906 3.28125 -0.859375 C 2.726562 -1.222656 2.269531 -1.671875 1.90625 -2.203125 C 1.550781 -2.742188 1.328125 -3.367188 1.234375 -4.078125 L 3.28125 -4.078125 C 3.414062 -3.492188 3.671875 -3.003906 4.046875 -2.609375 C 4.421875 -2.210938 4.878906 -1.914062 5.421875 -1.71875 C 5.972656 -1.519531 6.570312 -1.421875 7.21875 -1.421875 C 7.9375 -1.421875 8.582031 -1.519531 9.15625 -1.71875 C 9.726562 -1.925781 10.175781 -2.21875 10.5 -2.59375 C 10.832031 -2.96875 11 -3.414062 11 -3.9375 C 11 -4.394531 10.894531 -4.789062 10.6875 -5.125 C 10.476562 -5.46875 10.175781 -5.75 9.78125 -5.96875 C 9.382812 -6.195312 8.898438 -6.378906 8.328125 -6.515625 L 5.328125 -7.203125 C 4.191406 -7.453125 3.300781 -7.894531 2.65625 -8.53125 C 2.019531 -9.164062 1.695312 -10.007812 1.6875 -11.0625 C 1.6875 -11.9375 1.921875 -12.707031 2.390625 -13.375 C 2.859375 -14.050781 3.503906 -14.578125 4.328125 -14.953125 C 5.148438 -15.328125 6.09375 -15.515625 7.15625 -15.515625 C 8.375 -15.515625 9.398438 -15.304688 10.234375 -14.890625 C 11.066406 -14.472656 11.695312 -13.925781 12.125 -13.25 C 12.550781 -12.570312 12.769531 -11.847656 12.78125 -11.078125 L 10.75 -11.078125 C 10.6875 -11.773438 10.484375 -12.328125 10.140625 -12.734375 C 9.796875 -13.140625 9.363281 -13.425781 8.84375 -13.59375 C 8.332031 -13.769531 7.773438 -13.859375 7.171875 -13.859375 C 6.734375 -13.859375 6.3125 -13.800781 5.90625 -13.6875 C 5.5 -13.582031 5.132812 -13.421875 4.8125 -13.203125 C 4.488281 -12.984375 4.226562 -12.707031 4.03125 -12.375 C 3.84375 -12.050781 3.75 -11.675781 3.75 -11.25 C 3.75 -10.695312 3.9375 -10.242188 4.3125 -9.890625 C 4.695312 -9.546875 5.382812 -9.253906 6.375 -9.015625 L 9.296875 -8.3125 C 10.054688 -8.144531 10.675781 -7.898438 11.15625 -7.578125 C 11.644531 -7.265625 12.019531 -6.90625 12.28125 -6.5 C 12.550781 -6.101562 12.738281 -5.6875 12.84375 -5.25 C 12.945312 -4.8125 13 -4.378906 13 -3.953125 C 13 -3.179688 12.769531 -2.476562 12.3125 -1.84375 C 11.851562 -1.21875 11.191406 -0.71875 10.328125 -0.34375 C 9.472656 0.03125 8.441406 0.21875 7.234375 0.21875 Z M 7.234375 0.21875 "/></g></g></g></svg>